<svg xmlns="http://www.w3.org/2000/svg" xmlns:xlink="http://www.w3.org/1999/xlink" xmlns:xodm="http://www.corel.com/coreldraw/odm/2003" xml:space="preserve" width="627px" height="223px" style="shape-rendering:geometricPrecision; text-rendering:geometricPrecision; image-rendering:optimizeQuality; fill-rule:evenodd; clip-rule:evenodd" viewBox="0 0 16.351 5.823"> <defs>  <style type="text/css">   <![CDATA[    .fil0 {fill:#9B8CB0}   ]]>  </style> </defs> <g id="Layer_x0020_1">  <metadata id="CorelCorpID_0Corel-Layer"></metadata>  <path class="fil0" d="M4.784 0.52c0.094,0.048 0.102,0.034 0.117,0.108 0.062,0.291 0.102,0.945 0.102,1.282 0,1.032 -0.212,2.004 -0.884,2.799l-0.188 0.202c-0.331,0.331 -0.98,0.765 -1.418,0.912 -0.452,-0.124 -1.057,-0.569 -1.21,-0.691l-0.206 -0.183c-0.13,-0.131 -0.248,-0.261 -0.357,-0.41 -0.611,-0.835 -0.74,-1.708 -0.74,-2.717 0,-0.194 0.054,-0.854 0.072,-0.997 0.038,-0.3 -0.024,-0.23 0.205,-0.335 1.526,-0.705 3.24,-0.609 4.507,0.03zm2.615 3.343l-0.586 0 0 -0.402 0.62 0 0 -0.233 -0.904 0 0 1.555 0.939 0 0 -0.233 -0.655 0 0 -0.457 0.586 0 0 -0.23zm1.588 0.062l-0.549 0 0 0.224 0.274 0 0 0.387c-0.037,0.019 -0.113,0.033 -0.214,0.033 -0.323,0 -0.54,-0.21 -0.54,-0.563 0,-0.363 0.233,-0.559 0.565,-0.559 0.164,0 0.268,0.03 0.353,0.067l0.062 -0.23c-0.071,-0.033 -0.221,-0.072 -0.413,-0.072 -0.514,0 -0.865,0.316 -0.865,0.808 -0.002,0.235 0.079,0.44 0.217,0.572 0.148,0.14 0.346,0.207 0.609,0.207 0.208,0 0.402,-0.05 0.501,-0.087l0 -0.787zm1.12 0.418l0.14 0.44 0.305 0 -0.505 -1.555 -0.363 0 -0.498 1.555 0.293 0 0.134 -0.44 0.494 0zm-0.448 -0.215l0.12 -0.383c0.028,-0.092 0.051,-0.201 0.074,-0.291l0.005 0c0.023,0.09 0.048,0.196 0.078,0.291l0.122 0.383 -0.399 0zm2.47 0.655l0.276 0 -0.089 -1.555 -0.37 0 -0.214 0.623c-0.06,0.182 -0.113,0.374 -0.155,0.542l-0.007 0c-0.039,-0.173 -0.087,-0.357 -0.143,-0.54l-0.203 -0.625 -0.374 0 -0.103 1.555 0.265 0 0.035 -0.625c0.011,-0.212 0.02,-0.459 0.027,-0.665l0.005 0c0.041,0.197 0.097,0.409 0.157,0.607l0.207 0.665 0.22 0 0.226 -0.674c0.069,-0.196 0.133,-0.406 0.184,-0.598l0.007 0c-0.002,0.213 0.009,0.455 0.019,0.656l0.03 0.634zm0.589 -1.555l0 1.555 0.284 0 0 -1.555 -0.284 0zm0.893 1.555l0 -0.556c0,-0.256 -0.002,-0.461 -0.013,-0.662l0.007 -0.002c0.076,0.175 0.18,0.367 0.279,0.535l0.406 0.685 0.293 0 0 -1.555 -0.263 0 0 0.542c0,0.238 0.007,0.439 0.025,0.646l-0.004 0c-0.072,-0.168 -0.162,-0.348 -0.266,-0.521l-0.401 -0.667 -0.323 0 0 1.555 0.26 0zm2.569 -0.858l-0.549 0 0 0.224 0.275 0 0 0.387c-0.037,0.019 -0.113,0.033 -0.215,0.033 -0.323,0 -0.54,-0.21 -0.54,-0.563 0,-0.363 0.233,-0.559 0.565,-0.559 0.164,0 0.268,0.03 0.353,0.067l0.063 -0.23c-0.072,-0.033 -0.222,-0.072 -0.413,-0.072 -0.515,0 -0.865,0.316 -0.865,0.808 -0.003,0.235 0.078,0.44 0.216,0.572 0.148,0.14 0.347,0.207 0.61,0.207 0.207,0 0.401,-0.05 0.5,-0.087l0 -0.787zm-8.583 -1.624c-0.074,0.035 -0.194,0.058 -0.309,0.058 -0.341,0 -0.542,-0.22 -0.542,-0.561 0,-0.374 0.228,-0.572 0.544,-0.572 0.129,0 0.231,0.027 0.305,0.06l0.062 -0.226c-0.058,-0.03 -0.191,-0.07 -0.378,-0.07 -0.476,0 -0.831,0.31 -0.831,0.822 0,0.473 0.3,0.784 0.794,0.784 0.187,0 0.334,-0.037 0.401,-0.071l-0.046 -0.224zm0.286 -1.285l0 0.89c0,0.49 0.233,0.69 0.593,0.69 0.374,0 0.621,-0.212 0.621,-0.692l0 -0.888 -0.284 0 0 0.907c0,0.304 -0.122,0.445 -0.328,0.445 -0.191,0 -0.318,-0.141 -0.318,-0.445l0 -0.907 -0.284 0zm1.539 1.555l0.282 0 0 -0.639 0.143 0c0.161,0.004 0.235,0.069 0.279,0.272 0.044,0.194 0.081,0.321 0.104,0.367l0.293 0c-0.033,-0.06 -0.074,-0.24 -0.123,-0.434 -0.039,-0.15 -0.106,-0.258 -0.216,-0.3l0 -0.007c0.145,-0.053 0.281,-0.189 0.281,-0.39 0,-0.131 -0.048,-0.24 -0.134,-0.311 -0.104,-0.088 -0.256,-0.125 -0.48,-0.125 -0.164,0 -0.323,0.014 -0.429,0.033l0 1.534zm0.282 -1.338c0.027,-0.007 0.085,-0.014 0.175,-0.014 0.185,0 0.305,0.078 0.305,0.249 0,0.155 -0.12,0.256 -0.312,0.256l-0.168 0 0 -0.491zm1.852 0.897l0.141 0.441 0.305 0 -0.506 -1.555 -0.362 0 -0.498 1.555 0.293 0 0.134 -0.441 0.493 0zm-0.447 -0.214l0.12 -0.383c0.027,-0.093 0.05,-0.201 0.074,-0.291l0.004 0c0.023,0.09 0.049,0.196 0.079,0.291l0.122 0.383 -0.399 0zm2.129 0.385c-0.074,0.035 -0.196,0.058 -0.309,0.058 -0.341,0 -0.542,-0.22 -0.542,-0.561 0,-0.374 0.228,-0.572 0.544,-0.572 0.13,0 0.231,0.027 0.305,0.06l0.062 -0.226c-0.057,-0.03 -0.191,-0.07 -0.378,-0.07 -0.475,0 -0.831,0.31 -0.831,0.822 0,0.431 0.245,0.722 0.658,0.773l-0.092 0.184c0.117,0.014 0.18,0.042 0.18,0.093 0,0.046 -0.04,0.064 -0.088,0.064 -0.046,0 -0.095,-0.014 -0.129,-0.032l-0.042 0.127c0.049,0.025 0.118,0.041 0.185,0.041 0.124,0 0.256,-0.053 0.256,-0.203 0,-0.101 -0.076,-0.161 -0.164,-0.18l0.048 -0.085c0.183,-0.002 0.319,-0.037 0.383,-0.069l-0.046 -0.224zm1.119 -0.171l0.141 0.441 0.305 0 -0.506 -1.555 -0.362 0 -0.498 1.555 0.293 0 0.134 -0.441 0.493 0zm-0.447 -0.214l0.12 -0.383c0.027,-0.093 0.05,-0.201 0.074,-0.291l0.004 0c0.023,0.09 0.049,0.196 0.079,0.291l0.122 0.383 -0.399 0zm1.719 -0.926c-0.439,0 -0.739,0.337 -0.739,0.815 0,0.457 0.277,0.791 0.716,0.791 0.429,0 0.745,-0.297 0.745,-0.819 0,-0.443 -0.268,-0.787 -0.722,-0.787zm-0.007 0.227c0.283,0 0.429,0.279 0.429,0.572 0,0.325 -0.155,0.581 -0.429,0.581 -0.273,0 -0.432,-0.254 -0.432,-0.57 0,-0.32 0.15,-0.583 0.432,-0.583zm-11.966 -0.547c0.001,-0.035 0.052,-0.042 0.091,-0.029 0.063,0.021 0.037,0.058 0.041,0.084 -0.02,0.071 -0.026,0.193 -0.059,0.212 -0.02,0.012 -0.048,0.01 -0.071,0.003 -0.063,-0.016 -0.045,-0.067 -0.034,-0.124l0.021 -0.111c0.001,-0.006 0.002,-0.013 0.003,-0.018 0.001,-0.005 0.002,-0.006 0.004,-0.01 0.002,-0.005 0.001,-0.003 0.004,-0.007zm-1.217 0.08l0.043 -0.161c0.002,0.007 0.032,0.149 0.034,0.161l-0.077 0zm-0.12 0.152l0.078 -0.001 0.022 -0.076 0.115 -0.001 0.023 0.076 0.078 0.003 -0.112 -0.425c-0.004,-0.019 -0.006,-0.011 -0.056,-0.013 -0.036,-0.001 -0.025,0 -0.045,0.069l-0.103 0.368zm0.539 0.292l0.077 0.004 -0.027 0.439 -0.076 -0.004 0.026 -0.439zm-1.778 -0.569c-0.003,0.01 -0.01,0.01 -0.02,0.031 -0.018,0.038 -0.005,0.096 0.005,0.135 0.012,0.051 0.02,0.131 0.041,0.175 0.041,0.088 0.166,0.064 0.228,0.027 0.031,-0.019 0.031,-0.026 0.047,-0.059 0.003,-0.024 0.003,-0.054 -0.001,-0.076 -0.011,-0.001 -0.066,0.011 -0.075,0.017 0.005,0.036 0.005,0.051 -0.023,0.066 -0.02,0.011 -0.052,0.02 -0.076,0.013 -0.029,-0.009 -0.033,-0.024 -0.04,-0.054 -0.007,-0.028 -0.013,-0.056 -0.017,-0.085 -0.004,-0.008 -0.013,-0.062 -0.016,-0.076 -0.007,-0.038 -0.007,-0.054 0.018,-0.071 0.02,-0.014 0.051,-0.021 0.08,-0.015 0.032,0.007 0.027,0.03 0.043,0.051 0.013,0 0.058,-0.008 0.066,-0.015 0.006,-0.008 0.002,-0.02 -0.002,-0.03 -0.005,-0.013 -0.009,-0.018 -0.011,-0.029 -0.018,-0.012 -0.024,-0.055 -0.12,-0.047 -0.072,0.006 -0.082,0.023 -0.127,0.042zm0.117 1.135c0.012,-0.005 0.224,-0.047 0.236,-0.046 0.004,-0.018 -0.004,-0.051 -0.008,-0.069 -0.039,-0.003 -0.154,0.036 -0.182,0.032l-0.006 -0.042 -0.013 -0.072c0.024,-0.006 0.122,-0.029 0.141,-0.027 0.001,-0.017 -0.006,-0.051 -0.009,-0.069 -0.012,-0.001 -0.103,0.019 -0.124,0.023l-0.022 0.001c-0.004,-0.008 -0.022,-0.092 -0.02,-0.105 0.002,-0.013 0.159,-0.034 0.161,-0.034 0.011,-0.018 -0.003,-0.048 -0.007,-0.067 -0.016,-0.001 -0.236,0.043 -0.242,0.048 -0.006,0.005 0.003,0.034 0.007,0.05 0.003,0.018 0.007,0.036 0.011,0.055 0.007,0.036 0.014,0.073 0.021,0.109l0.038 0.194c0.004,0.022 0.001,0.02 0.018,0.019zm2.062 -0.972c0.001,-0.011 0.032,-0.097 0.04,-0.118 0.006,-0.015 0.007,-0.03 0.019,-0.032l0.015 0.159 -0.074 -0.009zm-0.139 0.136l0.075 0.01 0.031 -0.072c0.017,0 0.106,0.006 0.115,0.017 0.006,0.007 0.011,0.061 0.014,0.076l0.075 0.01 -0.061 -0.449 -0.078 -0.01c-0.008,0.039 -0.17,0.392 -0.171,0.418zm-1.073 0.566l0.031 -0.164c0.003,0.007 0.043,0.146 0.045,0.158l-0.076 0.006zm-0.11 0.159l0.078 -0.006 0.017 -0.078 0.114 -0.008c0.011,0.019 0.018,0.055 0.029,0.074l0.078 -0.003 -0.142 -0.416c-0.006,-0.018 -0.006,-0.01 -0.056,-0.008 -0.037,0.001 -0.025,0.001 -0.041,0.071l-0.077 0.374zm-0.26 -1.143c0.003,0.058 0.019,0.147 0.028,0.208 0.009,0.064 0.042,0.155 -0.045,0.17 -0.087,0.015 -0.08,-0.081 -0.09,-0.147 -0.01,-0.07 -0.02,-0.142 -0.028,-0.213l-0.072 0.008c-0.004,0.007 -0.001,-0.001 -0.002,0.008 -0.003,0.014 0.033,0.252 0.034,0.264 0.009,0.053 0.008,0.084 0.041,0.116 0.064,0.063 0.196,0.026 0.228,-0.02 0.029,-0.041 0.027,-0.069 0.02,-0.126l-0.038 -0.277c-0.013,-0.003 -0.062,0.005 -0.076,0.009zm-0.094 0.879c-0.002,-0.018 -0.004,-0.04 0.006,-0.053 0.019,-0.027 0.062,-0.033 0.093,-0.028 0.019,0.003 0.028,0.012 0.03,0.029 0.008,0.006 0.008,0.012 0.014,0.02l0.069 -0.006c0.005,-0.021 -0.011,-0.056 -0.02,-0.07 -0.012,-0.018 -0.026,-0.032 -0.054,-0.038 -0.043,-0.009 -0.119,-0.002 -0.156,0.016 -0.044,0.02 -0.065,0.058 -0.06,0.121 0.004,0.049 0.012,0.112 0.02,0.16 0.011,0.062 0.017,0.098 0.056,0.126 0.037,0.026 0.108,0.019 0.153,0.006 0.129,-0.04 0.079,-0.139 0.074,-0.26 -0.019,0.001 -0.136,0.017 -0.148,0.024l0.011 0.061c0.021,0.005 0.047,-0.008 0.073,-0.004 0.041,0.139 -0.091,0.127 -0.115,0.112 -0.024,-0.014 -0.026,-0.062 -0.031,-0.097 -0.005,-0.037 -0.013,-0.082 -0.015,-0.119zm2.075 0.103c-0.005,0.011 -0.014,0.057 -0.009,0.065 0.015,0.012 0.05,0.007 0.068,0.017 0.003,0.018 -0.012,0.066 -0.022,0.078 -0.015,0.019 -0.046,0.022 -0.078,0.016 -0.077,-0.014 -0.051,-0.075 -0.041,-0.138 0.007,-0.039 0.019,-0.141 0.044,-0.157 0.023,-0.014 0.061,-0.008 0.086,0.002 0.051,0.021 0.025,0.047 0.034,0.063 0.007,0.006 0.023,0.006 0.035,0.009 0.013,0.003 0.025,0.008 0.038,0.006 0.038,-0.156 -0.176,-0.177 -0.235,-0.144 -0.048,0.026 -0.05,0.073 -0.065,0.139 -0.009,0.044 -0.029,0.137 -0.026,0.179 0.002,0.029 0.014,0.057 0.029,0.07 0.04,0.038 0.18,0.074 0.232,0.008 0.031,-0.038 0.036,-0.101 0.048,-0.156 0.007,-0.034 0.008,-0.031 -0.003,-0.035l-0.135 -0.022zm-0.829 -0.902c-0.006,-0.062 0.128,-0.059 0.133,-0.006 0.007,0.009 0.002,0.019 0.004,0.034l0.08 0.002c0,-0.085 -0.031,-0.127 -0.111,-0.14 -0.086,-0.013 -0.154,-0.002 -0.178,0.068 -0.011,0.034 -0.021,0.186 -0.021,0.227 -0.001,0.09 0.031,0.123 0.11,0.138l-0.017 0.043 0.018 0.008c0.006,0.001 0.011,0.001 0.017,0.004 0.009,0.005 0.016,0.016 0.017,0.026 -0.024,0.028 -0.041,0.005 -0.068,0.002 -0.012,0.009 -0.02,0.016 -0.023,0.03 0.002,0.014 0.078,0.06 0.133,0.01 0.013,-0.012 0.031,-0.038 0.022,-0.064 -0.011,-0.026 -0.041,-0.024 -0.052,-0.043 0.004,-0.007 -0.003,-0.002 0.009,-0.008l0.044 -0.01c0.018,-0.004 0.037,-0.011 0.047,-0.021 0.016,-0.017 0.041,-0.064 0.04,-0.098l-0.08 -0.006c-0.002,0.03 -0.004,0.057 -0.056,0.063 -0.03,0.003 -0.075,-0.005 -0.082,-0.038 -0.007,-0.028 0.004,-0.129 0.007,-0.167l0.004 -0.047c0.002,-0.008 0.001,-0.004 0.003,-0.007zm-0.721 0.085c-0.012,0.01 -0.03,0.015 -0.05,0.016 -0.027,0.003 -0.039,0.012 -0.04,-0.016 -0.002,-0.036 -0.002,-0.089 -0.008,-0.123 0.038,0 0.085,-0.01 0.104,0.02 0.015,0.024 0.014,0.086 -0.006,0.103zm-0.177 -0.187c-0.001,0.035 0.023,0.389 0.029,0.436l0.075 -0.005c0.003,-0.036 -0.016,-0.129 -0.006,-0.157 0.027,-0.004 0.031,0.006 0.042,0.022l0.082 0.125 0.088 -0.004c-0.005,-0.02 -0.097,-0.143 -0.104,-0.161 0.028,-0.016 0.06,-0.026 0.067,-0.085 0.006,-0.041 -0.002,-0.101 -0.021,-0.13 -0.023,-0.035 -0.051,-0.046 -0.106,-0.048 -0.028,-0.001 -0.123,0.001 -0.146,0.007zm1.124 1.158c0.02,0.001 0.062,0.009 0.07,0.007l0.004 -0.001c0.011,-0.004 0.019,-0.17 0.021,-0.198 0,-0.019 -0.002,-0.055 0.01,-0.064 0.008,0.004 0.025,0.069 0.03,0.082l0.058 0.174c0.006,0.021 0.005,0.025 0.028,0.026l0.041 0.005c0.002,0 0.009,0 0.012,-0.004 0.005,-0.011 0.049,-0.398 0.049,-0.428l-0.073 -0.01c-0.015,0.057 -0.022,0.268 -0.026,0.278 -0.015,-0.005 -0.013,-0.03 -0.027,-0.069 -0.023,-0.064 -0.047,-0.162 -0.07,-0.224 -0.017,-0.002 -0.062,-0.009 -0.076,-0.005l-0.051 0.431zm-0.436 -0.285l-0.009 0.271c0.016,0.001 0.059,0.001 0.072,-0.004l0.003 -0.434 -0.073 0c-0.008,0.026 -0.032,0.069 -0.045,0.096l-0.046 0.095c-0.009,-0.005 -0.016,-0.027 -0.024,-0.044 -0.012,-0.028 -0.057,-0.137 -0.067,-0.148l-0.076 0.002 -0.001 0.434 0.075 0 -0.008 -0.27 0.102 0.171 0.097 -0.169zm1.04 -0.79c-0.053,0.011 -0.076,0.054 -0.086,0.11 -0.009,0.054 -0.02,0.112 -0.031,0.166 -0.014,0.064 -0.006,0.114 0.042,0.14 0.041,0.022 0.108,0.04 0.16,0.028 0.054,-0.013 0.075,-0.051 0.086,-0.108 0.011,-0.055 0.023,-0.111 0.032,-0.165 0.014,-0.078 0.007,-0.108 -0.043,-0.14 -0.038,-0.025 -0.109,-0.04 -0.16,-0.031zm-2.81 3.083l0 0 0.295 -0.216 0.295 0.215 -0.109 -0.339 0.291 -0.223 -0.354 0c0,0 -0.122,-0.339 -0.122,-0.347l-0.003 0 -0.121 0.346 -0.355 0.001 0.293 0.221 -0.11 0.342zm-0.598 -0.832l0.194 -0.142 0.216 0.158 -0.08 -0.248 0.213 -0.164 -0.259 0c0,0 -0.019,-0.053 -0.04,-0.111 0.114,-0.043 0.239,-0.083 0.372,-0.12 0.022,-0.007 0.043,-0.012 0.063,-0.017 0.156,-0.039 0.3,-0.078 0.47,-0.108 0.434,-0.077 0.702,-0.106 1.177,-0.106 0.755,0 1.711,0.207 2.199,0.465 -0.053,0.715 -0.317,1.508 -0.704,1.961l-3.135 0 -0.017 -0.013c-0.386,-0.433 -0.582,-0.987 -0.669,-1.555zm0.127 -0.461l-0.023 0.065 -0.117 0c0.05,-0.026 0.093,-0.046 0.14,-0.065zm-0.164 0.155l0.095 0.072 -0.063 0.198c-0.013,-0.09 -0.024,-0.18 -0.032,-0.27zm2.297 3.065c-0.15,-0.002 -1.053,-0.563 -1.053,-0.65l2.087 0c-0.005,0.094 -0.922,0.658 -1.034,0.65z"></path> </g></svg>