<?xml version="1.0" encoding="UTF-8"?>
<!-- Creator: CorelDRAW 2021 (64-Bit) -->
<svg xmlns="http://www.w3.org/2000/svg" xmlns:xlink="http://www.w3.org/1999/xlink" xmlns:xodm="http://www.corel.com/coreldraw/odm/2003" xml:space="preserve" width="491px" height="314px" version="1.1" style="shape-rendering:geometricPrecision; text-rendering:geometricPrecision; image-rendering:optimizeQuality; fill-rule:evenodd; clip-rule:evenodd" viewBox="0 0 479.071 306.805">
 <defs>
  <style type="text/css">
   <![CDATA[
    .fil0 {fill:#FBC30A}
    .fil1 {fill:white;fill-rule:nonzero}
   ]]>
  </style>
 </defs>
 <g id="Layer_x0020_1">
  <metadata id="CorelCorpID_0Corel-Layer"></metadata>
  <path class="fil0" d="M83.469 71.684l-14.66 -31.442c-0.476,-1.02 -1.846,-0.765 -2.095,0.102l-5.609 23.517c-0.332,1.118 -1.798,1.828 -2.925,1.341l-20.596 -9.9c-2.34,-1.049 -5.433,0.214 -6.148,3.292l-5.903 21.921c-0.367,1.154 -1.863,1.8 -2.919,1.323l-20.902 -10.937c-0.007,0.003 -0.69,-0.226 -1.061,-0.053 -0.561,0.262 -0.805,0.926 -0.549,1.487l14.599 31.31c1.047,2.243 3.74,3.224 5.984,2.177l60.567 -28.243c2.215,-1.032 3.198,-3.668 2.217,-5.895zm-70.808 -28.06c-0.424,-1.18 -1.353,-2.108 -2.532,-2.532l-8.813 -3.167c12.679,-4.557 9.956,-1.833 14.511,-14.512 4.557,12.679 1.834,9.956 14.513,14.512 -12.679,4.556 -9.956,1.833 -14.513,14.512l-3.166 -8.813zm17.2 -32.558c-0.576,-1.604 -3.68,-2.211 -6.212,-3.121 6.942,-2.494 5.451,-1.003 7.945,-7.945 2.495,6.942 1.004,5.451 7.946,7.945 -6.942,2.495 -5.451,1.004 -7.946,7.946l-1.733 -4.825z"></path>
  <path class="fil1" d="M30.72 269.499c-1.592,0 -2.106,0.514 -2.106,2.106l0 32.256c0,2.728 1.892,2.106 6.266,2.106 1.593,0 2.106,-0.514 2.106,-2.106l0 -9.759 7.499 0c7.807,0 12.584,-4.623 12.584,-12.276 0,-7.653 -4.828,-12.327 -12.584,-12.327l-13.765 0zm107.966 -90.915c-2.261,-4.294 -4.747,-8.137 -7.459,-11.527l35.711 -67.882c3.616,-6.554 1.13,-10.886 -6.102,-10.886l-32.322 0c-10.78,0 -13.583,0.571 -18.081,9.079l-25.314 47.954 -4.069 -0.226 0 -46.824c0,-8.107 -9.158,-9.526 -13.389,-7.015 -11.47,7.645 -22.941,15.291 -34.41,22.935 -2.5,2.231 -4.205,5.334 -4.637,8.831l0 115.984c0,7.496 2.486,9.982 9.945,9.982l32.546 0c7.459,0 9.945,-2.486 9.945,-9.982l0 -48.181 2.035 0c2.938,0 6.102,3.165 9.267,9.493l18.307 38.01c4.294,8.852 8.589,10.66 21.246,10.66l30.513 0c7.91,0 10.623,-5.462 6.78,-12.469l-30.512 -57.936zm142.618 -90.295c-7.459,0 -9.945,2.487 -9.945,9.983 0,14.841 -0.055,52.364 2.034,62.438 -1.332,-2.986 -5.878,-12.901 -10.171,-19.909l-29.382 -47.954c-2.034,-2.976 -5.199,-4.558 -9.719,-4.558l-34.581 0c-7.459,0 -9.945,2.487 -9.945,9.983l0 140.735c0,7.496 2.486,9.982 9.945,9.982l28.93 0c7.459,0 9.945,-2.486 9.945,-9.982 0,-15.995 0.134,-53.282 -1.129,-63.431 2.067,4.959 10.568,20.257 15.368,27.908l25.541 40.721c2.034,3.202 5.425,4.784 9.719,4.784l32.32 0c7.459,0 9.945,-2.486 9.945,-9.982l0 -140.735c0,-7.496 -2.486,-9.983 -9.945,-9.983l-28.93 0zm128.605 67.128c-7.459,0 -9.944,2.486 -9.944,9.945l0 19.664c0,7.458 2.485,9.945 9.944,9.945l16.047 0 0 0.903c0,7.459 -6.328,11.075 -18.985,11.075 -15.369,0 -19.664,-5.424 -19.664,-19.889l0 -36.616c0,-14.464 4.295,-19.889 19.664,-19.889 25.723,0 12.615,25.166 31.417,19.212l30.738 -10.85c7.007,-2.486 8.815,-5.65 6.329,-12.657 -10.171,-27.348 -32.999,-41.135 -68.484,-41.135 -45.882,0 -72.101,24.862 -72.101,65.546l0 36.163c0,40.683 26.219,65.546 72.101,65.546 22.602,0 40.231,-5.425 53.114,-16.274 12.658,-10.849 18.986,-24.862 18.986,-41.814l0 -28.93c0,-7.459 -2.486,-9.945 -9.945,-9.945l-59.217 0zm-372.923 131.032l0 -9.348c5.545,0 11.403,-1.137 11.403,4.725 0,5.752 -5.819,4.623 -11.403,4.623zm67.861 -15.306c-0.798,-2.217 -2.84,-1.644 -6.523,-1.644 -1.489,0 -2.106,0.36 -2.568,1.747l-12.276 32.667c-0.977,2.62 1.718,2.054 4.931,2.054 3.901,0 3.469,-1.077 5.393,-6.729l12.687 0c2.473,7.501 1.078,6.729 9.245,6.729 1.438,0 1.901,-0.667 1.387,-2.054l-12.276 -32.77zm-0.513 21.315l-8.321 0 4.084 -12.262 4.237 12.262zm44.696 -22.959c-1.592,0 -2.106,0.514 -2.106,2.106l0 32.256c0,2.728 1.892,2.106 6.267,2.106 1.592,0 2.105,-0.514 2.105,-2.106l0 -10.837c7.061,0 5.755,0.077 10.992,10.94 1.268,2.629 4.299,2.003 8.423,2.003 1.49,0 1.85,-0.975 1.079,-2.208l-6.369 -11.917c3.955,-1.798 5.958,-5.342 5.958,-10.53 0,-7.396 -4.674,-11.813 -12.121,-11.813l-14.228 0zm16.59 14.896c-0.77,0.77 -1.797,1.13 -3.184,1.13l-7.14 0 0 -8.424 7.14 0c5.266,0 4.819,5.659 3.184,7.294zm41.153 -14.896c-2.653,0 -2.106,1.721 -2.106,5.547 0,1.593 0.514,2.055 2.106,2.055l8.064 0 0 26.76c0,2.721 1.73,2.106 6.214,2.106 1.593,0 2.106,-0.514 2.106,-2.106l0 -26.76c11.438,0 10.119,1.143 10.119,-5.496 0,-1.592 -0.514,-2.106 -2.106,-2.106l-24.397 0zm81.009 0c-1.592,0 -2.105,0.514 -2.105,2.106l0 18.982 -13.252 -20.112c-0.949,-1.44 -3.71,-0.976 -6.266,-0.976 -1.593,0 -2.106,0.514 -2.106,2.106l0 32.256c0,2.691 1.803,2.106 5.906,2.106 1.593,0 2.106,-0.514 2.106,-2.106l0 -19.096 13.303 20.227c0.941,1.43 3.683,0.975 6.215,0.975 1.593,0 2.055,-0.514 2.055,-2.106l0 -32.256c0,-2.684 -1.649,-2.106 -5.856,-2.106zm41.256 0c-1.593,0 -2.106,0.514 -2.106,2.106l0 32.256c0,1.592 0.513,2.106 2.106,2.106l21.161 0c2.654,0 2.106,-1.721 2.106,-5.547 0,-1.489 -0.616,-2.106 -2.106,-2.106l-14.895 0 0 -6.986 11.814 0c2.653,0 2.105,-1.72 2.105,-5.547 0,-1.592 -0.513,-2.054 -2.105,-2.054l-11.814 0 0 -6.626 14.382 0c2.646,0 2.105,-1.573 2.105,-5.496 0,-1.592 -0.513,-2.106 -2.105,-2.106l-20.648 0zm56.972 0c-1.592,0 -2.106,0.514 -2.106,2.106l0 32.256c0,2.728 1.892,2.106 6.266,2.106 1.593,0 2.106,-0.514 2.106,-2.106l0 -10.837c7.063,0 5.754,0.078 10.992,10.94 1.268,2.629 4.299,2.003 8.423,2.003 1.49,0 1.849,-0.975 1.079,-2.208l-6.369 -11.917c3.955,-1.798 5.958,-5.342 5.958,-10.53 0,-7.396 -4.674,-11.813 -12.121,-11.813l-14.228 0zm16.59 14.896c-0.77,0.77 -1.797,1.13 -3.184,1.13l-7.14 0 0 -8.424 7.14 0c5.263,0 4.82,5.658 3.184,7.294zm40.998 -4.161c0,15.371 21.162,8.078 21.162,14.895 0,2.723 -2.26,4.058 -6.831,4.058 -8.379,0 -5.184,-6.308 -9.348,-4.777 -3.555,1.307 -5.961,1.43 -5.085,4.007 3.506,10.31 19.323,9.983 25.578,5.085 5.888,-4.61 5.802,-14.958 -1.951,-18.183 -6.085,-2.531 -14.947,-0.945 -14.947,-5.444 0,-2.466 1.798,-3.545 6.061,-3.545 7.239,0 5.014,6.051 8.732,4.418 3.96,-1.74 6.202,-1.968 5.033,-4.469 -2.414,-5.136 -6.421,-7.55 -13.765,-7.55 -9.297,0 -14.639,4.674 -14.639,11.505z"></path>
 </g>
</svg>
