<svg xmlns:xlink="http://www.w3.org/1999/xlink" xmlns="http://www.w3.org/2000/svg" width="59.081" height="44.152" viewBox="0 0 59.081 44.152"><g id="free-icon-dollar-symbol-in-black-oval-9455785" transform="translate(-9 -75.203)" stroke="#1CC343" fill="#1CC343"><path id="Контур_12251" data-name="Контур 12251" d="M67.081,196.586H10a1,1,0,0,1-1-1V163.58a1,1,0,0,1,2,0v31.006H66.081V163.58a1,1,0,0,1,2,0v32.006A1,1,0,0,1,67.081,196.586Z" transform="translate(0 -77.231)" fill="#1CC343" stroke="#1CC343"></path><path id="Контур_12252" data-name="Контур 12252" d="M67.081,152.9H10a1,1,0,0,1-1-1V119.892a1,1,0,0,1,2,0V150.9H66.081V119.892a1,1,0,0,1,2,0V151.9A1,1,0,0,1,67.081,152.9Z" transform="translate(0 -38.616)" fill="#1CC343" stroke="#1CC343"></path><path id="Контур_12253" data-name="Контур 12253" d="M67.081,109.209H10a1,1,0,0,1-1-1V76.2a1,1,0,0,1,1-1H33.38a1,1,0,0,1,0,2H11v30.006H66.081V77.2H43.822a1,1,0,0,1,0-2H67.081a1,1,0,0,1,1,1v32.006A1,1,0,0,1,67.081,109.209Z" fill="#1CC343" stroke="#1CC343"></path><path id="Эллипс_627" data-name="Эллипс 627" d="M2.528-1A3.528,3.528,0,1,1-1,2.528,3.532,3.532,0,0,1,2.528-1Zm0,5.056A1.528,1.528,0,1,0,1,2.528,1.53,1.53,0,0,0,2.528,4.056Z" transform="translate(50.146 89.623)" fill="#1CC343" stroke="#1CC343"></path><path id="Эллипс_628" data-name="Эллипс 628" d="M2.528-1A3.528,3.528,0,1,1-1,2.528,3.532,3.532,0,0,1,2.528-1Zm0,5.056A1.528,1.528,0,1,0,1,2.528,1.53,1.53,0,0,0,2.528,4.056Z" transform="translate(21.878 89.623)" fill="#1CC343" stroke="#1CC343"></path><g id="Сгруппировать_11254" data-name="Сгруппировать 11254" transform="translate(37.06 86.813)" stroke="#1CC343" fill="#1CC343"><g id="Сгруппировать_11253" data-name="Сгруппировать 11253" transform="translate(0 1.061)" stroke="#1CC343" fill="#1CC343"><path id="Контур_12254" data-name="Контур 12254" d="M252.261,221.441a3.722,3.722,0,0,1-2.366-.834,1,1,0,1,1,1.272-1.543,1.718,1.718,0,0,0,1.094.378,1.354,1.354,0,1,0,0-2.672,1,1,0,0,1,0-2,3.344,3.344,0,1,1,0,6.672Z" transform="translate(-249.687 -211.098)" fill="#1CC343" stroke="#1CC343"></path><path id="Контур_12255" data-name="Контур 12255" d="M245.836,181.211a3.344,3.344,0,1,1,0-6.671,3.721,3.721,0,0,1,2.366.835,1,1,0,1,1-1.272,1.543,1.717,1.717,0,0,0-1.094-.378,1.354,1.354,0,1,0,0,2.671,1,1,0,1,1,0,2Z" transform="translate(-243.262 -175.54)" fill="#1CC343" stroke="#1CC343"></path></g><path id="Линия_97" data-name="Линия 97" d="M0,1.972a1,1,0,0,1-1-1V0A1,1,0,0,1,0-1,1,1,0,0,1,1,0V.972A1,1,0,0,1,0,1.972Z" transform="translate(2.574 10.404)" fill="#1CC343" stroke="#1CC343"></path><path id="Линия_98" data-name="Линия 98" d="M0,2.061a1,1,0,0,1-1-1V0A1,1,0,0,1,0-1,1,1,0,0,1,1,0V1.061A1,1,0,0,1,0,2.061Z" transform="translate(2.574 0)" fill="#1CC343" stroke="#1CC343"></path></g><path id="Контур_12256" data-name="Контур 12256" d="M96.855,142.241H57.192a1,1,0,0,1-1-1,2.658,2.658,0,0,0-2.653-2.657,1,1,0,0,1-1-1V123.4a1,1,0,0,1,1-1,2.658,2.658,0,0,0,2.653-2.657,1,1,0,0,1,1-1H96.855a1,1,0,0,1,1,1,2.658,2.658,0,0,0,2.653,2.657,1,1,0,0,1,1,1v14.184a1,1,0,0,1-1,1,2.658,2.658,0,0,0-2.653,2.657A1,1,0,0,1,96.855,142.241Zm-38.771-2H95.963a4.67,4.67,0,0,1,3.545-3.549v-12.4a4.67,4.67,0,0,1-3.545-3.549H58.084a4.67,4.67,0,0,1-3.545,3.549v12.4A4.67,4.67,0,0,1,58.084,140.241Z" transform="translate(-38.483 -38.484)" fill="#1CC343" stroke="#1CC343"></path><path id="Линия_99" data-name="Линия 99" transform="translate(38.601 76.207)" fill="#1CC343" stroke="#1CC343"></path></g></svg>