<svg xmlns="http://www.w3.org/2000/svg" xmlns:xlink="http://www.w3.org/1999/xlink" xmlns:xodm="http://www.corel.com/coreldraw/odm/2003" xml:space="preserve" width="290px" height="85px" style="shape-rendering:geometricPrecision; text-rendering:geometricPrecision; image-rendering:optimizeQuality; fill-rule:evenodd; clip-rule:evenodd" viewBox="0 0 26.946 7.898"> <defs>  <style type="text/css">   <![CDATA[    .fil0 {fill:none}    .fil1 {fill:#FBC30A}    .fil2 {fill:white;fill-rule:nonzero}   ]]>  </style> </defs> <g id="Layer_x0020_1">  <metadata id="CorelCorpID_0Corel-Layer"></metadata>  <rect class="fil0" width="26.946" height="7.898"></rect>  <g id="_1431563827168">   <path class="fil1" d="M9.566 1.853l-0.349 -0.75c-0.012,-0.024 -0.044,-0.018 -0.05,0.002l-0.134 0.561c-0.008,0.027 -0.043,0.044 -0.07,0.032l-0.491 -0.236c-0.056,-0.025 -0.129,0.005 -0.147,0.078l-0.14 0.523c-0.009,0.028 -0.045,0.043 -0.07,0.032l-0.498 -0.261c0,0 -0.017,-0.005 -0.026,-0.001 -0.013,0.006 -0.019,0.022 -0.013,0.035l0.348 0.747c0.025,0.053 0.09,0.077 0.143,0.052l1.444 -0.674c0.053,-0.024 0.077,-0.087 0.053,-0.14l0 0zm-1.688 -0.669c-0.01,-0.029 -0.032,-0.051 -0.061,-0.061l-0.21 -0.075c0.303,-0.109 0.238,-0.044 0.346,-0.346 0.109,0.302 0.044,0.237 0.346,0.346 -0.302,0.108 -0.237,0.043 -0.346,0.346l-0.075 -0.21zm0.41 -0.777c-0.014,-0.038 -0.088,-0.053 -0.148,-0.074 0.165,-0.06 0.13,-0.024 0.189,-0.19 0.06,0.166 0.024,0.13 0.19,0.19 -0.166,0.059 -0.13,0.024 -0.19,0.189l-0.041 -0.115z"></path>   <path class="fil2" d="M8.308 6.569c-0.038,0 -0.05,0.013 -0.05,0.051l0 0.769c0,0.065 0.045,0.05 0.15,0.05 0.038,0 0.05,-0.012 0.05,-0.05l0 -0.233 0.179 0c0.186,0 0.3,-0.11 0.3,-0.293 0,-0.182 -0.115,-0.294 -0.3,-0.294l-0.329 0zm2.575 -2.167c-0.054,-0.103 -0.113,-0.194 -0.178,-0.275l0.851 -1.619c0.087,-0.156 0.027,-0.259 -0.145,-0.259l-0.771 0c-0.257,0 -0.324,0.013 -0.431,0.216l-0.603 1.144 -0.097 -0.006 0 -1.116c0,-0.194 -0.219,-0.228 -0.32,-0.168 -0.273,0.183 -0.547,0.365 -0.82,0.547 -0.06,0.053 -0.101,0.127 -0.111,0.211l0 2.765c0,0.179 0.059,0.238 0.237,0.238l0.776 0c0.178,0 0.238,-0.059 0.238,-0.238l0 -1.148 0.048 0c0.07,0 0.146,0.075 0.221,0.226l0.437 0.906c0.102,0.211 0.204,0.254 0.506,0.254l0.728 0c0.188,0 0.253,-0.13 0.161,-0.297l-0.727 -1.381 0 0zm3.4 -2.153c-0.177,0 -0.237,0.059 -0.237,0.238 0,0.353 -0.001,1.248 0.049,1.488 -0.032,-0.071 -0.14,-0.307 -0.243,-0.474l-0.7 -1.144c-0.049,-0.071 -0.124,-0.108 -0.232,-0.108l-0.825 0c-0.177,0 -0.237,0.059 -0.237,0.238l0 3.355c0,0.179 0.06,0.238 0.237,0.238l0.69 0c0.178,0 0.237,-0.059 0.237,-0.238 0,-0.381 0.004,-1.27 -0.027,-1.512 0.05,0.118 0.252,0.483 0.367,0.665l0.609 0.971c0.048,0.077 0.129,0.114 0.232,0.114l0.77 0c0.178,0 0.237,-0.059 0.237,-0.238l0 -3.355c0,-0.179 -0.059,-0.238 -0.237,-0.238l-0.689 0 -0.001 0zm3.067 1.6c-0.178,0 -0.237,0.059 -0.237,0.237l0 0.469c0,0.178 0.059,0.237 0.237,0.237l0.383 0 0 0.022c0,0.178 -0.151,0.264 -0.453,0.264 -0.366,0 -0.469,-0.129 -0.469,-0.474l0 -0.873c0,-0.345 0.103,-0.475 0.469,-0.475 0.613,0 0.301,0.6 0.749,0.458l0.733 -0.258c0.167,-0.06 0.21,-0.135 0.151,-0.302 -0.243,-0.652 -0.787,-0.981 -1.633,-0.981 -1.094,0 -1.719,0.593 -1.719,1.563l0 0.862c0,0.97 0.625,1.563 1.719,1.563 0.539,0 0.959,-0.129 1.266,-0.388 0.302,-0.258 0.453,-0.593 0.453,-0.997l0 -0.69c0,-0.178 -0.059,-0.237 -0.237,-0.237l-1.412 0 0 0zm-8.892 3.125l0 -0.223c0.132,0 0.272,-0.027 0.272,0.112 0,0.138 -0.139,0.111 -0.272,0.111l0 0zm1.618 -0.365c-0.019,-0.053 -0.068,-0.04 -0.156,-0.04 -0.035,0 -0.05,0.009 -0.061,0.042l-0.293 0.779c-0.023,0.063 0.041,0.049 0.118,0.049 0.093,0 0.083,-0.026 0.129,-0.16l0.302 0c0.059,0.178 0.026,0.16 0.221,0.16 0.034,0 0.045,-0.016 0.033,-0.049l-0.293 -0.781zm-0.012 0.508l-0.199 0 0.098 -0.292 0.101 0.292zm1.065 -0.548c-0.037,0 -0.05,0.013 -0.05,0.051l0 0.769c0,0.065 0.045,0.05 0.15,0.05 0.038,0 0.05,-0.012 0.05,-0.05l0 -0.259c0.168,0 0.137,0.002 0.262,0.261 0.03,0.063 0.102,0.048 0.201,0.048 0.035,0 0.044,-0.023 0.026,-0.053l-0.152 -0.284c0.094,-0.043 0.142,-0.127 0.142,-0.251 0,-0.176 -0.112,-0.282 -0.289,-0.282l-0.34 0zm0.396 0.356c-0.018,0.018 -0.043,0.027 -0.076,0.027l-0.17 0 0 -0.201 0.17 0c0.126,0 0.115,0.135 0.076,0.174zm0.981 -0.356c-0.063,0 -0.05,0.042 -0.05,0.133 0,0.038 0.012,0.049 0.05,0.049l0.193 0 0 0.638c0,0.065 0.041,0.05 0.148,0.05 0.038,0 0.05,-0.012 0.05,-0.05l0 -0.638c0.273,0 0.241,0.027 0.241,-0.131 0,-0.038 -0.012,-0.051 -0.05,-0.051l-0.582 0zm1.932 0c-0.038,0 -0.05,0.013 -0.05,0.051l0 0.452 -0.316 -0.479c-0.023,-0.035 -0.089,-0.024 -0.15,-0.024 -0.038,0 -0.05,0.013 -0.05,0.051l0 0.769c0,0.064 0.043,0.05 0.141,0.05 0.038,0 0.05,-0.012 0.05,-0.05l0 -0.456 0.317 0.483c0.023,0.034 0.088,0.023 0.149,0.023 0.038,0 0.049,-0.012 0.049,-0.05l0 -0.769c0,-0.064 -0.04,-0.051 -0.14,-0.051l0 0zm0.984 0c-0.038,0 -0.051,0.013 -0.051,0.051l0 0.769c0,0.038 0.013,0.05 0.051,0.05l0.504 0c0.064,0 0.051,-0.041 0.051,-0.132 0,-0.036 -0.015,-0.05 -0.051,-0.05l-0.355 0 0 -0.167 0.282 0c0.063,0 0.05,-0.041 0.05,-0.132 0,-0.038 -0.012,-0.049 -0.05,-0.049l-0.282 0 0 -0.158 0.343 0c0.063,0 0.05,-0.038 0.05,-0.131 0,-0.038 -0.012,-0.051 -0.05,-0.051l-0.492 0 0 0zm1.358 0c-0.038,0 -0.05,0.013 -0.05,0.051l0 0.769c0,0.065 0.045,0.05 0.149,0.05 0.038,0 0.051,-0.012 0.051,-0.05l0 -0.259c0.168,0 0.137,0.002 0.262,0.261 0.03,0.063 0.102,0.048 0.201,0.048 0.035,0 0.044,-0.023 0.025,-0.053l-0.152 -0.284c0.095,-0.043 0.142,-0.127 0.142,-0.251 0,-0.176 -0.111,-0.282 -0.289,-0.282l-0.339 0 0 0zm0.396 0.356c-0.019,0.018 -0.043,0.027 -0.076,0.027l-0.17 0 0 -0.201 0.17 0c0.125,0 0.115,0.135 0.076,0.174zm0.977 -0.1c0,0.367 0.505,0.193 0.505,0.356 0,0.065 -0.054,0.096 -0.163,0.096 -0.2,0 -0.124,-0.15 -0.223,-0.114 -0.085,0.032 -0.142,0.035 -0.121,0.096 0.084,0.246 0.461,0.238 0.61,0.121 0.14,-0.11 0.138,-0.356 -0.047,-0.433 -0.145,-0.061 -0.356,-0.023 -0.356,-0.13 0,-0.059 0.043,-0.085 0.144,-0.085 0.173,0 0.12,0.145 0.209,0.106 0.094,-0.042 0.148,-0.047 0.12,-0.107 -0.058,-0.122 -0.153,-0.18 -0.329,-0.18 -0.221,0 -0.349,0.112 -0.349,0.274l0 0z"></path>  </g> </g></svg>