<svg xmlns="http://www.w3.org/2000/svg" xmlns:xlink="http://www.w3.org/1999/xlink" xmlns:xodm="http://www.corel.com/coreldraw/odm/2003" xml:space="preserve" width="290px" height="85px" style="shape-rendering:geometricPrecision; text-rendering:geometricPrecision; image-rendering:optimizeQuality; fill-rule:evenodd; clip-rule:evenodd" viewBox="0 0 21.243 6.226"> <defs>  <style type="text/css">   <![CDATA[    .fil0 {fill:none}    .fil1 {fill:#FF6B01}    .fil3 {fill:white}    .fil4 {fill:#EDE9F2;fill-rule:nonzero}    .fil2 {fill:url(#id0)}   ]]>  </style>  <linearGradient id="id0" gradientUnits="userSpaceOnUse" x1="2.49" y1="1.704" x2="5.16" y2="3.984">   <stop offset="0" style="stop-opacity:1; stop-color:#FCE224"></stop>   <stop offset="0.45098" style="stop-opacity:1; stop-color:#FDDC27"></stop>   <stop offset="0.6" style="stop-opacity:1; stop-color:#FFD62A"></stop>   <stop offset="1" style="stop-opacity:1; stop-color:#FF6B01"></stop>  </linearGradient> </defs> <g id="Layer_x0020_1">  <metadata id="CorelCorpID_0Corel-Layer"></metadata>  <rect class="fil0" width="21.243" height="6.226"></rect>  <g id="_1431316900944">   <g id="_1966991858960">    <path class="fil1" d="M5.436 2.368c-0.006,0.019 0.001,0.006 -0.013,0.023l-0.242 0.241c-0.084,0.088 -0.174,0.17 -0.341,0.171 -0.25,0 -0.34,-0.169 -0.455,-0.319 -0.042,-0.054 -0.07,-0.098 -0.107,-0.147 -0.077,-0.1 -0.147,-0.195 -0.222,-0.294 -0.013,-0.018 -0.053,-0.066 -0.055,-0.077 -0.001,-0.006 0,-0.01 0.002,-0.015 0.036,-0.041 0.059,-0.096 0.059,-0.156 0,-0.13 -0.106,-0.236 -0.237,-0.236 -0.131,0 -0.237,0.106 -0.237,0.236 0,0.012 0.001,0.024 0.003,0.036 0.003,0.029 0.01,0.048 0.021,0.067 0.009,0.019 0.021,0.038 0.036,0.054 0.002,0.003 0.004,0.006 0.006,0.01 0.002,0.012 -0.272,0.367 -0.29,0.391l-0.219 0.291c-0.16,0.184 -0.398,0.212 -0.594,0.065l-0.256 -0.255c-0.021,-0.02 -0.068,-0.059 -0.08,-0.086 0.001,-0.003 0.004,-0.007 0.006,-0.01 0.046,-0.044 0.075,-0.105 0.075,-0.173 0,-0.131 -0.106,-0.236 -0.237,-0.236 -0.13,0 -0.236,0.105 -0.236,0.236 0,0.064 0.025,0.122 0.067,0.165 0.007,0.008 0.015,0.015 0.023,0.02 0.021,0.017 0.045,0.03 0.071,0.039 0.001,0.001 0.003,0.002 0.004,0.003 0.009,0.069 0.157,0.653 0.184,0.752 0.067,0.246 0.054,0.327 0.146,0.351l2.716 0 0.042 0c0.012,0 0.024,0 0.036,0l0.195 0c0.062,-0.008 0.098,-0.035 0.119,-0.115l0.092 -0.377c0.033,-0.112 0.115,-0.435 0.141,-0.561 0.008,-0.038 0.003,-0.046 0.013,-0.054 0.092,-0.032 0.157,-0.12 0.157,-0.223 0,-0.131 -0.106,-0.236 -0.236,-0.236 -0.09,0 -0.168,0.049 -0.208,0.123l0 0 0 0.001c-0.037,0.067 -0.043,0.152 0,0.228 0.008,0.015 0.015,0.025 0.025,0.036l0.025 0.031 0.001 0zm-3.051 1.393l2.891 0c0.065,0 0.119,0.054 0.119,0.119l0 0.261c0,0.065 -0.054,0.118 -0.119,0.118l-2.891 0c-0.065,0 -0.118,-0.053 -0.118,-0.118l0 -0.261c0,-0.065 0.053,-0.119 0.118,-0.119z"></path>    <g>     <g>      <path class="fil2" d="M5.436 2.319c-0.006,0.018 0.001,0.005 -0.013,0.023l-0.242 0.241c-0.084,0.087 -0.174,0.169 -0.341,0.17 -0.25,0.001 -0.34,-0.169 -0.455,-0.319 -0.042,-0.054 -0.07,-0.097 -0.107,-0.146 -0.077,-0.1 -0.147,-0.195 -0.222,-0.294 -0.013,-0.018 -0.053,-0.067 -0.055,-0.078 -0.001,-0.005 0,-0.01 0.002,-0.014 0.036,-0.042 0.059,-0.097 0.059,-0.156 0,-0.131 -0.106,-0.237 -0.237,-0.237 -0.131,0 -0.237,0.106 -0.237,0.237 0,0.012 0.001,0.023 0.003,0.035 0.003,0.029 0.01,0.049 0.021,0.067 0.009,0.02 0.021,0.038 0.036,0.054 0.002,0.003 0.004,0.007 0.006,0.01 0.002,0.013 -0.272,0.367 -0.29,0.391l-0.219 0.291c-0.16,0.185 -0.398,0.213 -0.594,0.065l-0.256 -0.255c-0.021,-0.02 -0.068,-0.059 -0.08,-0.085 0.001,-0.004 0.004,-0.007 0.006,-0.011 0.046,-0.043 0.075,-0.105 0.075,-0.173 0,-0.13 -0.106,-0.236 -0.237,-0.236 -0.13,0 -0.236,0.106 -0.236,0.236 0,0.064 0.025,0.123 0.067,0.165 0.007,0.008 0.015,0.015 0.023,0.021 0.021,0.017 0.045,0.03 0.071,0.038 0.001,0.001 0.003,0.002 0.004,0.003 0.009,0.069 0.157,0.653 0.184,0.752 0.067,0.246 0.054,0.327 0.146,0.352l2.716 0 0.042 0c0.012,0 0.024,0 0.036,0l0.195 0c0.062,-0.008 0.098,-0.035 0.119,-0.116l0.092 -0.376c0.033,-0.112 0.115,-0.436 0.141,-0.562 0.008,-0.038 0.003,-0.046 0.013,-0.054 0.092,-0.032 0.157,-0.12 0.157,-0.223 0,-0.13 -0.106,-0.236 -0.236,-0.236 -0.09,0 -0.168,0.05 -0.208,0.123l0 0.001 0 0c-0.037,0.067 -0.043,0.152 0,0.228 0.008,0.015 0.015,0.025 0.025,0.036l0.025 0.032 0.001 0zm-3.051 1.392l2.891 0c0.065,0 0.119,0.054 0.119,0.119l0 0.261c0,0.065 -0.054,0.119 -0.119,0.119l-2.891 0c-0.065,0 -0.118,-0.054 -0.118,-0.119l0 -0.261c0,-0.065 0.053,-0.119 0.118,-0.119z"></path>     </g>    </g>    <path class="fil3" d="M5.424 2.341l-0.001 0.001 -0.242 0.241c-0.084,0.087 -0.174,0.169 -0.341,0.17 -0.25,0.001 -0.34,-0.169 -0.455,-0.319 -0.042,-0.054 -0.07,-0.097 -0.107,-0.146 -0.077,-0.1 -0.147,-0.195 -0.222,-0.294 -0.01,-0.014 -0.034,-0.044 -0.047,-0.063 -0.002,0.002 -0.004,0.005 -0.006,0.007 -0.002,0.004 -0.003,0.009 -0.002,0.015 0.002,0.011 0.042,0.059 0.055,0.077 0.075,0.099 0.145,0.194 0.222,0.294 0.037,0.049 0.065,0.092 0.107,0.146 0.115,0.151 0.205,0.32 0.455,0.319 0.167,0 0.257,-0.082 0.341,-0.17l0.242 -0.241c0.014,-0.018 0.007,-0.005 0.013,-0.023l-0.012 -0.014zm-1.363 -0.577c0,-0.006 0.001,-0.012 0.001,-0.018 0,-0.131 -0.106,-0.237 -0.237,-0.237 -0.131,0 -0.237,0.106 -0.237,0.237 0,0.006 0.001,0.012 0.001,0.018 0.009,-0.122 0.112,-0.218 0.236,-0.218 0.124,0 0.227,0.096 0.236,0.218l0 0zm-0.419 0.169c-0.052,0.077 -0.262,0.349 -0.278,0.37l-0.219 0.291c-0.16,0.185 -0.398,0.213 -0.594,0.065l-0.256 -0.255c-0.016,-0.015 -0.048,-0.042 -0.067,-0.066 -0.002,0.002 -0.005,0.004 -0.007,0.007 -0.002,0.003 -0.004,0.007 -0.006,0.01 0.012,0.027 0.059,0.066 0.08,0.086l0.256 0.255c0.196,0.147 0.434,0.119 0.594,-0.065l0.219 -0.292c0.018,-0.023 0.292,-0.378 0.29,-0.39 -0.002,-0.004 -0.004,-0.007 -0.006,-0.01 -0.002,-0.002 -0.004,-0.004 -0.006,-0.006l0 0zm-1.347 0.221c0.001,-0.006 0.001,-0.012 0.001,-0.019 0,-0.13 -0.106,-0.236 -0.237,-0.236 -0.13,0 -0.236,0.106 -0.236,0.236 0,0.007 0,0.013 0.001,0.019 0.009,-0.122 0.111,-0.219 0.235,-0.219 0.125,0 0.227,0.097 0.236,0.219zm3.534 0c0,-0.006 0,-0.012 0,-0.019 0,-0.13 -0.105,-0.236 -0.236,-0.236 -0.09,0 -0.168,0.05 -0.208,0.123l0 0.001 0 0c-0.022,0.04 -0.033,0.086 -0.029,0.133 0.002,-0.034 0.013,-0.067 0.029,-0.096l0 -0.001 0 0c0.04,-0.074 0.118,-0.124 0.208,-0.124 0.124,0 0.226,0.097 0.236,0.219zm-3.444 1.557l2.891 0c0.065,0 0.119,0.054 0.119,0.119l0 0.037c0,-0.066 -0.054,-0.119 -0.119,-0.119l-2.891 0c-0.065,0 -0.118,0.053 -0.118,0.119l0 -0.037c0,-0.065 0.053,-0.119 0.118,-0.119z"></path>    <path class="fil4" d="M7.109 2.356l-0.453 0 0 1.854 0.453 0 0 -0.747 0.54 0.747 0.519 0 -0.707 -0.967 0.694 -0.887 -0.506 0 -0.54 0.715 0 -0.715zm1.647 0.464l-0.442 0 0 1.39 0.442 0 0 -1.39zm-0.225 -0.085c0.14,0 0.249,-0.101 0.249,-0.238 0,-0.141 -0.109,-0.241 -0.249,-0.241 -0.141,0 -0.247,0.1 -0.247,0.241 0,0.137 0.106,0.238 0.247,0.238zm1.294 1.475l0.443 0 0 -0.771c0,-0.283 -0.043,-0.654 -0.477,-0.654 -0.175,0 -0.297,0.096 -0.35,0.178l0 -0.143 -0.431 0 0 1.39 0.442 0 0 -0.829c0,-0.111 0.069,-0.199 0.191,-0.199 0.106,0 0.182,0.069 0.182,0.199l0 0.829zm1.642 -0.072c0,0.17 -0.164,0.207 -0.328,0.207 -0.188,0 -0.345,-0.066 -0.384,-0.085l-0.13 0.339c0.124,0.063 0.318,0.119 0.514,0.119 0.413,0 0.77,-0.161 0.77,-0.675l0 -1.223 -0.413 0 0 0.108c-0.04,-0.045 -0.172,-0.143 -0.376,-0.143 -0.4,0 -0.68,0.302 -0.68,0.728 0,0.432 0.254,0.731 0.656,0.731 0.212,0 0.342,-0.106 0.371,-0.14l0 0.034 0 0zm0.013 -0.627c0,0.219 -0.124,0.344 -0.299,0.344 -0.18,0 -0.299,-0.14 -0.299,-0.344 0,-0.207 0.119,-0.337 0.296,-0.337 0.191,0 0.302,0.151 0.302,0.337l0 0zm1.893 -0.13c0,-0.119 0.067,-0.199 0.17,-0.199 0.106,0 0.169,0.075 0.169,0.199l0 0.829 0.442 0 0 -0.924c0,-0.294 -0.15,-0.501 -0.471,-0.501 -0.18,0 -0.31,0.074 -0.394,0.183 -0.075,-0.114 -0.196,-0.183 -0.36,-0.183 -0.186,0 -0.297,0.093 -0.345,0.178l0 -0.143 -0.431 0 0 1.39 0.442 0 0 -0.829c0,-0.127 0.066,-0.199 0.169,-0.199 0.106,0 0.167,0.075 0.167,0.199l0 0.829 0.442 0 0 -0.829zm0.951 0.397c0,0.302 0.244,0.466 0.516,0.466 0.143,0 0.244,-0.04 0.315,-0.111l0.024 0.077 0.395 0 0 -0.861c0,-0.318 -0.122,-0.564 -0.601,-0.564 -0.231,0 -0.419,0.074 -0.567,0.172l0.164 0.297c0.109,-0.053 0.228,-0.087 0.35,-0.087 0.143,0 0.211,0.066 0.211,0.15l0 0.051c-0.05,-0.021 -0.145,-0.051 -0.267,-0.051 -0.328,0 -0.54,0.183 -0.54,0.461l0 0zm0.442 -0.016c0,-0.09 0.08,-0.148 0.185,-0.148 0.106,0 0.188,0.053 0.188,0.148 0,0.093 -0.079,0.143 -0.185,0.143 -0.103,0 -0.188,-0.05 -0.188,-0.143zm2.359 -0.942l-0.495 0 -0.376 0.558 0 -1.083 -0.442 0 0 1.915 0.442 0 0 -0.649 0.389 0.649 0.519 0 -0.484 -0.755 0.447 -0.635zm1.462 0.81c0.002,-0.032 0.002,-0.061 0.002,-0.088 0,-0.473 -0.241,-0.757 -0.683,-0.757 -0.407,0 -0.683,0.326 -0.683,0.734 0,0.41 0.281,0.725 0.739,0.725 0.36,0 0.551,-0.225 0.59,-0.307l-0.291 -0.225c-0.026,0.04 -0.124,0.148 -0.291,0.148 -0.164,0 -0.283,-0.106 -0.294,-0.23l0.911 0 0 0zm-0.673 -0.487c0.138,0 0.22,0.095 0.225,0.206l-0.45 0c0.011,-0.098 0.08,-0.206 0.225,-0.206zm1.652 -0.358c-0.172,0 -0.301,0.085 -0.368,0.22l0 -0.185 -0.431 0 0 1.39 0.442 0 0 -0.615c0,-0.209 0.071,-0.365 0.286,-0.365 0.032,0 0.053,0.003 0.071,0.005l0 -0.45z"></path>   </g>  </g> </g></svg>